<?xml version="1.0" encoding="UTF-8"?><!DOCTYPE svg PUBLIC "-//W3C//DTD SVG 1.1//EN" "http://www.w3.org/Graphics/SVG/1.1/DTD/svg11.dtd"><svg xmlns="http://www.w3.org/2000/svg" xmlns:xlink="http://www.w3.org/1999/xlink" version="1.1" width="24" height="24" viewBox="0 0 24 24"><path d="M20 12C20 16.4161 16.4174 20 12 20C7.58139 20 4 16.4161 4 12C4 7.58007 7.58139 4 12 4C12.7634 4 13.5 4.11207 14.2004 4.31207L15.7724 2.74007C14.6074 2.26467 13.3354 2 12 2C6.47638 2 2 6.47507 2 12C2 17.5211 6.47638 22 12 22C17.5224 22 22 17.5211 22 12M7.91339 10.0841L6.5 11.5L11 16L21 6L19.5854 4.58407L11 13.1701L7.91339 10.0841Z" /></svg>