<?xml version="1.0" encoding="UTF-8"?><!DOCTYPE svg PUBLIC "-//W3C//DTD SVG 1.1//EN" "http://www.w3.org/Graphics/SVG/1.1/DTD/svg11.dtd"><svg xmlns="http://www.w3.org/2000/svg" xmlns:xlink="http://www.w3.org/1999/xlink" version="1.1" width="24" height="24" viewBox="0 0 24 24"><path style="fill: white; stroke: white;" d="M9.5 3C13.0899 3 16 5.91015 16 9.5C16 11.1149 15.411 12.5923 14.4362 13.7291L14.7071 14L15.5 14L20.5 19L19 20.5L14 15.5L14 14.7071L13.7291 14.4362C12.5923 15.411 11.1149 16 9.5 16C5.91015 16 3 13.0899 3 9.5C3 5.91015 5.91015 3 9.5 3ZM9.5 5C7 5 5 7 5 9.5C5 12 7 14 9.5 14C12 14 14 12 14 9.5C14 7 12 5 9.5 5Z" /></svg>